<mxfile host="app.diagrams.net" agent="Mozilla/5.0 (Windows NT 10.0; Win64; x64) AppleWebKit/537.36 (KHTML, like Gecko) Chrome/139.0.0.0 Safari/537.36" version="28.2.0">
  <diagram id="C5RBs43oDa-KdzZeNtuy" name="Page-1">
    <mxGraphModel grid="1" page="1" gridSize="10" guides="1" tooltips="1" connect="1" arrows="1" fold="1" pageScale="1" pageWidth="827" pageHeight="1169" background="none" math="0" shadow="0">
      <root>
        <mxCell id="WIyWlLk6GJQsqaUBKTNV-0" />
        <mxCell id="WIyWlLk6GJQsqaUBKTNV-1" parent="WIyWlLk6GJQsqaUBKTNV-0" />
        <mxCell id="UCGPzdaPRjbpdUpxFMsG-38" style="edgeStyle=elbowEdgeStyle;shape=connector;rounded=0;orthogonalLoop=1;jettySize=auto;html=1;entryX=0.5;entryY=0;entryDx=0;entryDy=0;strokeColor=default;align=center;verticalAlign=middle;fontFamily=Helvetica;fontSize=12;fontColor=default;labelBackgroundColor=default;endArrow=block;endFill=0;" edge="1" parent="WIyWlLk6GJQsqaUBKTNV-1" source="UCGPzdaPRjbpdUpxFMsG-33" target="UCGPzdaPRjbpdUpxFMsG-37">
          <mxGeometry relative="1" as="geometry" />
        </mxCell>
        <mxCell id="UCGPzdaPRjbpdUpxFMsG-33" value="ゲームスタート" style="html=1;dashed=0;whiteSpace=wrap;shape=mxgraph.dfd.start;rounded=1;strokeColor=default;align=center;verticalAlign=middle;fontFamily=Helvetica;fontSize=12;fontColor=default;fillColor=default;" vertex="1" parent="WIyWlLk6GJQsqaUBKTNV-1">
          <mxGeometry x="180" y="40" width="120" height="40" as="geometry" />
        </mxCell>
        <mxCell id="UCGPzdaPRjbpdUpxFMsG-40" style="edgeStyle=elbowEdgeStyle;shape=connector;rounded=0;orthogonalLoop=1;jettySize=auto;html=1;entryX=0.5;entryY=0;entryDx=0;entryDy=0;strokeColor=default;align=center;verticalAlign=middle;fontFamily=Helvetica;fontSize=12;fontColor=default;labelBackgroundColor=default;endArrow=block;endFill=0;" edge="1" parent="WIyWlLk6GJQsqaUBKTNV-1" source="UCGPzdaPRjbpdUpxFMsG-37" target="UCGPzdaPRjbpdUpxFMsG-39">
          <mxGeometry relative="1" as="geometry" />
        </mxCell>
        <mxCell id="UCGPzdaPRjbpdUpxFMsG-37" value="タイトル画面" style="shape=parallelogram;perimeter=parallelogramPerimeter;whiteSpace=wrap;html=1;dashed=0;rounded=1;strokeColor=default;align=center;verticalAlign=middle;fontFamily=Helvetica;fontSize=12;fontColor=default;fillColor=default;" vertex="1" parent="WIyWlLk6GJQsqaUBKTNV-1">
          <mxGeometry x="180" y="140" width="120" height="60" as="geometry" />
        </mxCell>
        <mxCell id="UCGPzdaPRjbpdUpxFMsG-39" value="終了を選択" style="shape=rhombus;html=1;dashed=0;whiteSpace=wrap;perimeter=rhombusPerimeter;rounded=0;strokeColor=default;align=center;verticalAlign=middle;fontFamily=Helvetica;fontSize=12;fontColor=default;fillColor=default;" vertex="1" parent="WIyWlLk6GJQsqaUBKTNV-1">
          <mxGeometry x="190" y="240" width="100" height="80" as="geometry" />
        </mxCell>
        <mxCell id="UCGPzdaPRjbpdUpxFMsG-46" value="Yes" style="rounded=0;html=1;jettySize=auto;orthogonalLoop=1;fontSize=11;endArrow=block;endFill=0;endSize=8;strokeWidth=1;shadow=0;labelBackgroundColor=none;edgeStyle=elbowEdgeStyle;spacing=0;strokeColor=default;align=center;verticalAlign=middle;fontFamily=Helvetica;fontColor=default;exitX=0;exitY=0.5;exitDx=0;exitDy=0;entryX=0;entryY=0.5;entryDx=0;entryDy=0;entryPerimeter=0;" edge="1" parent="WIyWlLk6GJQsqaUBKTNV-1" source="UCGPzdaPRjbpdUpxFMsG-39" target="UCGPzdaPRjbpdUpxFMsG-47">
          <mxGeometry x="-0.9394" y="-10" relative="1" as="geometry">
            <mxPoint as="offset" />
            <mxPoint x="100" y="300" as="sourcePoint" />
            <mxPoint x="100" y="470" as="targetPoint" />
            <Array as="points">
              <mxPoint x="50" y="720" />
            </Array>
          </mxGeometry>
        </mxCell>
        <mxCell id="UCGPzdaPRjbpdUpxFMsG-47" value="ゲーム終了" style="html=1;dashed=0;whiteSpace=wrap;shape=mxgraph.dfd.start;rounded=1;strokeColor=default;align=center;verticalAlign=middle;fontFamily=Helvetica;fontSize=12;fontColor=default;fillColor=default;" vertex="1" parent="WIyWlLk6GJQsqaUBKTNV-1">
          <mxGeometry x="180" y="2120" width="120" height="40" as="geometry" />
        </mxCell>
        <mxCell id="UCGPzdaPRjbpdUpxFMsG-48" value="設定を選択" style="shape=rhombus;html=1;dashed=0;whiteSpace=wrap;perimeter=rhombusPerimeter;rounded=0;strokeColor=default;align=center;verticalAlign=middle;fontFamily=Helvetica;fontSize=12;fontColor=default;fillColor=default;labelBackgroundColor=default;" vertex="1" parent="WIyWlLk6GJQsqaUBKTNV-1">
          <mxGeometry x="190" y="360" width="100" height="80" as="geometry" />
        </mxCell>
        <mxCell id="UCGPzdaPRjbpdUpxFMsG-49" value="No" style="rounded=0;html=1;jettySize=auto;orthogonalLoop=1;fontSize=11;endArrow=block;endFill=0;endSize=8;strokeWidth=1;shadow=0;labelBackgroundColor=none;edgeStyle=elbowEdgeStyle;spacing=0;strokeColor=default;align=center;verticalAlign=middle;fontFamily=Helvetica;fontColor=default;exitX=0.5;exitY=1;exitDx=0;exitDy=0;entryX=0.5;entryY=0;entryDx=0;entryDy=0;" edge="1" parent="WIyWlLk6GJQsqaUBKTNV-1" source="UCGPzdaPRjbpdUpxFMsG-39" target="UCGPzdaPRjbpdUpxFMsG-48">
          <mxGeometry x="-0.0588" y="20" relative="1" as="geometry">
            <mxPoint as="offset" />
            <mxPoint x="360" y="310" as="sourcePoint" />
            <mxPoint x="360" y="480" as="targetPoint" />
            <Array as="points">
              <mxPoint x="240" y="340" />
            </Array>
          </mxGeometry>
        </mxCell>
        <mxCell id="UCGPzdaPRjbpdUpxFMsG-50" value="設定画面" style="shape=parallelogram;perimeter=parallelogramPerimeter;whiteSpace=wrap;html=1;dashed=0;rounded=1;strokeColor=default;align=center;verticalAlign=middle;fontFamily=Helvetica;fontSize=12;fontColor=default;fillColor=default;labelBackgroundColor=default;" vertex="1" parent="WIyWlLk6GJQsqaUBKTNV-1">
          <mxGeometry x="330" y="370" width="120" height="60" as="geometry" />
        </mxCell>
        <mxCell id="UCGPzdaPRjbpdUpxFMsG-51" value="Yes" style="rounded=0;html=1;jettySize=auto;orthogonalLoop=1;fontSize=11;endArrow=block;endFill=0;endSize=8;strokeWidth=1;shadow=0;labelBackgroundColor=none;edgeStyle=elbowEdgeStyle;spacing=0;strokeColor=default;align=center;verticalAlign=middle;fontFamily=Helvetica;fontColor=default;exitX=1;exitY=0.5;exitDx=0;exitDy=0;entryX=0;entryY=0.5;entryDx=0;entryDy=0;" edge="1" parent="WIyWlLk6GJQsqaUBKTNV-1" source="UCGPzdaPRjbpdUpxFMsG-48" target="UCGPzdaPRjbpdUpxFMsG-50">
          <mxGeometry x="0.1538" y="10" relative="1" as="geometry">
            <mxPoint as="offset" />
            <mxPoint x="360" y="310" as="sourcePoint" />
            <mxPoint x="360" y="480" as="targetPoint" />
            <Array as="points" />
          </mxGeometry>
        </mxCell>
        <mxCell id="dMA6l-um9LlwjnxPnwSW-5" style="edgeStyle=orthogonalEdgeStyle;rounded=0;orthogonalLoop=1;jettySize=auto;html=1;entryX=0.5;entryY=0;entryDx=0;entryDy=0;endArrow=block;endFill=0;" edge="1" parent="WIyWlLk6GJQsqaUBKTNV-1" source="UCGPzdaPRjbpdUpxFMsG-52" target="dMA6l-um9LlwjnxPnwSW-0">
          <mxGeometry relative="1" as="geometry" />
        </mxCell>
        <mxCell id="UCGPzdaPRjbpdUpxFMsG-52" value="スタートを&lt;div&gt;選択&lt;/div&gt;" style="shape=rhombus;html=1;dashed=0;whiteSpace=wrap;perimeter=rhombusPerimeter;rounded=0;strokeColor=default;align=center;verticalAlign=middle;fontFamily=Helvetica;fontSize=12;fontColor=default;fillColor=default;labelBackgroundColor=default;" vertex="1" parent="WIyWlLk6GJQsqaUBKTNV-1">
          <mxGeometry x="190" y="480" width="100" height="80" as="geometry" />
        </mxCell>
        <mxCell id="UCGPzdaPRjbpdUpxFMsG-53" value="No" style="rounded=0;html=1;jettySize=auto;orthogonalLoop=1;fontSize=11;endArrow=block;endFill=0;endSize=8;strokeWidth=1;shadow=0;labelBackgroundColor=none;edgeStyle=elbowEdgeStyle;spacing=0;strokeColor=default;align=center;verticalAlign=middle;fontFamily=Helvetica;fontColor=default;exitX=0.5;exitY=1;exitDx=0;exitDy=0;entryX=0.5;entryY=0;entryDx=0;entryDy=0;" edge="1" parent="WIyWlLk6GJQsqaUBKTNV-1" source="UCGPzdaPRjbpdUpxFMsG-48" target="UCGPzdaPRjbpdUpxFMsG-52">
          <mxGeometry x="-0.0588" y="20" relative="1" as="geometry">
            <mxPoint as="offset" />
            <mxPoint x="180" y="480" as="sourcePoint" />
            <mxPoint x="180" y="650" as="targetPoint" />
            <Array as="points">
              <mxPoint x="240" y="460" />
            </Array>
          </mxGeometry>
        </mxCell>
        <mxCell id="UCGPzdaPRjbpdUpxFMsG-54" value="No" style="rounded=0;html=1;jettySize=auto;orthogonalLoop=1;fontSize=11;endArrow=block;endFill=0;endSize=8;strokeWidth=1;shadow=0;labelBackgroundColor=none;edgeStyle=elbowEdgeStyle;spacing=0;strokeColor=default;align=center;verticalAlign=middle;fontFamily=Helvetica;fontColor=default;exitX=1;exitY=0.5;exitDx=0;exitDy=0;entryX=1;entryY=0.5;entryDx=0;entryDy=0;" edge="1" parent="WIyWlLk6GJQsqaUBKTNV-1" source="UCGPzdaPRjbpdUpxFMsG-52" target="UCGPzdaPRjbpdUpxFMsG-37">
          <mxGeometry x="-0.918" y="10" relative="1" as="geometry">
            <mxPoint as="offset" />
            <mxPoint x="413" y="530" as="sourcePoint" />
            <mxPoint x="413" y="700" as="targetPoint" />
            <Array as="points">
              <mxPoint x="480" y="360" />
            </Array>
          </mxGeometry>
        </mxCell>
        <mxCell id="UCGPzdaPRjbpdUpxFMsG-58" style="edgeStyle=elbowEdgeStyle;shape=connector;rounded=0;orthogonalLoop=1;jettySize=auto;html=1;entryX=0.5;entryY=0;entryDx=0;entryDy=0;strokeColor=default;align=center;verticalAlign=middle;fontFamily=Helvetica;fontSize=12;fontColor=default;labelBackgroundColor=default;endArrow=block;endFill=0;" edge="1" parent="WIyWlLk6GJQsqaUBKTNV-1" source="UCGPzdaPRjbpdUpxFMsG-56" target="Vfz-lq0GeKyMY03_MZTZ-3">
          <mxGeometry relative="1" as="geometry">
            <mxPoint x="240" y="1460" as="targetPoint" />
          </mxGeometry>
        </mxCell>
        <mxCell id="UCGPzdaPRjbpdUpxFMsG-56" value="図書館の画面" style="shape=parallelogram;perimeter=parallelogramPerimeter;whiteSpace=wrap;html=1;dashed=0;rounded=1;strokeColor=default;align=center;verticalAlign=middle;fontFamily=Helvetica;fontSize=12;fontColor=default;fillColor=default;labelBackgroundColor=default;" vertex="1" parent="WIyWlLk6GJQsqaUBKTNV-1">
          <mxGeometry x="180" y="1360" width="120" height="60" as="geometry" />
        </mxCell>
        <mxCell id="Vfz-lq0GeKyMY03_MZTZ-5" style="edgeStyle=elbowEdgeStyle;shape=connector;rounded=0;orthogonalLoop=1;jettySize=auto;html=1;strokeColor=default;align=center;verticalAlign=middle;fontFamily=Helvetica;fontSize=11;fontColor=default;labelBackgroundColor=default;endArrow=block;endFill=0;entryX=0.5;entryY=0;entryDx=0;entryDy=0;" edge="1" parent="WIyWlLk6GJQsqaUBKTNV-1" source="Vfz-lq0GeKyMY03_MZTZ-3" target="Vfz-lq0GeKyMY03_MZTZ-16">
          <mxGeometry relative="1" as="geometry">
            <mxPoint x="240" y="1540" as="targetPoint" />
          </mxGeometry>
        </mxCell>
        <mxCell id="Vfz-lq0GeKyMY03_MZTZ-3" value="本棚（壁）の生成" style="html=1;dashed=0;whiteSpace=wrap;rounded=0;strokeColor=default;align=center;verticalAlign=middle;fontFamily=Helvetica;fontSize=12;fontColor=default;fillColor=default;labelBackgroundColor=default;" vertex="1" parent="WIyWlLk6GJQsqaUBKTNV-1">
          <mxGeometry x="180" y="1460" width="120" height="40" as="geometry" />
        </mxCell>
        <mxCell id="Vfz-lq0GeKyMY03_MZTZ-11" value="Yes" style="rounded=0;html=1;jettySize=auto;orthogonalLoop=1;fontSize=11;endArrow=block;endFill=0;endSize=8;strokeWidth=1;shadow=0;labelBackgroundColor=none;edgeStyle=elbowEdgeStyle;spacing=0;strokeColor=default;align=center;verticalAlign=middle;fontFamily=Helvetica;fontColor=default;entryX=0;entryY=0.5;entryDx=0;entryDy=0;exitX=1;exitY=0.5;exitDx=0;exitDy=0;" edge="1" parent="WIyWlLk6GJQsqaUBKTNV-1" source="Vfz-lq0GeKyMY03_MZTZ-16" target="Vfz-lq0GeKyMY03_MZTZ-13">
          <mxGeometry y="10" relative="1" as="geometry">
            <mxPoint as="offset" />
            <mxPoint x="340" y="1590" as="sourcePoint" />
            <mxPoint x="390" y="1590" as="targetPoint" />
            <Array as="points" />
          </mxGeometry>
        </mxCell>
        <mxCell id="Vfz-lq0GeKyMY03_MZTZ-15" style="edgeStyle=elbowEdgeStyle;shape=connector;rounded=0;orthogonalLoop=1;jettySize=auto;html=1;entryX=0.5;entryY=0;entryDx=0;entryDy=0;strokeColor=default;align=center;verticalAlign=middle;fontFamily=Helvetica;fontSize=11;fontColor=default;labelBackgroundColor=default;endArrow=block;endFill=0;" edge="1" parent="WIyWlLk6GJQsqaUBKTNV-1" source="Vfz-lq0GeKyMY03_MZTZ-13" target="Vfz-lq0GeKyMY03_MZTZ-14">
          <mxGeometry relative="1" as="geometry" />
        </mxCell>
        <mxCell id="Vfz-lq0GeKyMY03_MZTZ-13" value="本棚（イラスト）&lt;div&gt;を表示する&lt;/div&gt;" style="shape=parallelogram;perimeter=parallelogramPerimeter;whiteSpace=wrap;html=1;dashed=0;rounded=1;strokeColor=default;align=center;verticalAlign=middle;fontFamily=Helvetica;fontSize=12;fontColor=default;fillColor=default;labelBackgroundColor=default;" vertex="1" parent="WIyWlLk6GJQsqaUBKTNV-1">
          <mxGeometry x="846.9300000000001" y="1550" width="120" height="60" as="geometry" />
        </mxCell>
        <mxCell id="Vfz-lq0GeKyMY03_MZTZ-31" style="edgeStyle=elbowEdgeStyle;shape=connector;rounded=0;orthogonalLoop=1;jettySize=auto;html=1;entryX=0.5;entryY=0;entryDx=0;entryDy=0;strokeColor=default;align=center;verticalAlign=middle;fontFamily=Helvetica;fontSize=11;fontColor=default;labelBackgroundColor=default;endArrow=block;endFill=0;" edge="1" parent="WIyWlLk6GJQsqaUBKTNV-1" source="Vfz-lq0GeKyMY03_MZTZ-14" target="Vfz-lq0GeKyMY03_MZTZ-30">
          <mxGeometry relative="1" as="geometry" />
        </mxCell>
        <mxCell id="Vfz-lq0GeKyMY03_MZTZ-14" value="本をデータに沿って&lt;div&gt;配置する&lt;/div&gt;" style="html=1;dashed=0;whiteSpace=wrap;rounded=0;strokeColor=default;align=center;verticalAlign=middle;fontFamily=Helvetica;fontSize=12;fontColor=default;fillColor=default;labelBackgroundColor=default;" vertex="1" parent="WIyWlLk6GJQsqaUBKTNV-1">
          <mxGeometry x="846.9300000000001" y="1650" width="120" height="40" as="geometry" />
        </mxCell>
        <mxCell id="Vfz-lq0GeKyMY03_MZTZ-16" value="本棚を調べる" style="shape=rhombus;html=1;dashed=0;whiteSpace=wrap;perimeter=rhombusPerimeter;rounded=0;strokeColor=default;align=center;verticalAlign=middle;fontFamily=Helvetica;fontSize=12;fontColor=default;fillColor=default;labelBackgroundColor=default;" vertex="1" parent="WIyWlLk6GJQsqaUBKTNV-1">
          <mxGeometry x="190" y="1540" width="100" height="80" as="geometry" />
        </mxCell>
        <mxCell id="Vfz-lq0GeKyMY03_MZTZ-22" value="NPCに&lt;div&gt;話しかける&lt;/div&gt;" style="shape=rhombus;html=1;dashed=0;whiteSpace=wrap;perimeter=rhombusPerimeter;rounded=0;strokeColor=default;align=center;verticalAlign=middle;fontFamily=Helvetica;fontSize=12;fontColor=default;fillColor=default;labelBackgroundColor=default;" vertex="1" parent="WIyWlLk6GJQsqaUBKTNV-1">
          <mxGeometry x="190" y="1660" width="100" height="80" as="geometry" />
        </mxCell>
        <mxCell id="Vfz-lq0GeKyMY03_MZTZ-23" value="No" style="rounded=0;html=1;jettySize=auto;orthogonalLoop=1;fontSize=11;endArrow=block;endFill=0;endSize=8;strokeWidth=1;shadow=0;labelBackgroundColor=none;edgeStyle=elbowEdgeStyle;spacing=0;strokeColor=default;align=center;verticalAlign=middle;fontFamily=Helvetica;fontColor=default;exitX=0.5;exitY=1;exitDx=0;exitDy=0;entryX=0.5;entryY=0;entryDx=0;entryDy=0;" edge="1" parent="WIyWlLk6GJQsqaUBKTNV-1" source="Vfz-lq0GeKyMY03_MZTZ-16" target="Vfz-lq0GeKyMY03_MZTZ-22">
          <mxGeometry x="-0.0588" y="20" relative="1" as="geometry">
            <mxPoint as="offset" />
            <mxPoint x="280" y="1610" as="sourcePoint" />
            <mxPoint x="280" y="1780" as="targetPoint" />
            <Array as="points">
              <mxPoint x="240" y="1640" />
            </Array>
          </mxGeometry>
        </mxCell>
        <mxCell id="Vfz-lq0GeKyMY03_MZTZ-24" value="イベント持ちか" style="shape=rhombus;html=1;dashed=0;whiteSpace=wrap;perimeter=rhombusPerimeter;rounded=0;strokeColor=default;align=center;verticalAlign=middle;fontFamily=Helvetica;fontSize=12;fontColor=default;fillColor=default;labelBackgroundColor=default;" vertex="1" parent="WIyWlLk6GJQsqaUBKTNV-1">
          <mxGeometry x="340" y="1660" width="100" height="80" as="geometry" />
        </mxCell>
        <mxCell id="Vfz-lq0GeKyMY03_MZTZ-25" value="Yes" style="rounded=0;html=1;jettySize=auto;orthogonalLoop=1;fontSize=11;endArrow=block;endFill=0;endSize=8;strokeWidth=1;shadow=0;labelBackgroundColor=none;edgeStyle=elbowEdgeStyle;spacing=0;strokeColor=default;align=center;verticalAlign=middle;fontFamily=Helvetica;fontColor=default;entryX=0;entryY=0.5;entryDx=0;entryDy=0;exitX=1;exitY=0.5;exitDx=0;exitDy=0;" edge="1" parent="WIyWlLk6GJQsqaUBKTNV-1" source="Vfz-lq0GeKyMY03_MZTZ-22" target="Vfz-lq0GeKyMY03_MZTZ-24">
          <mxGeometry y="10" relative="1" as="geometry">
            <mxPoint as="offset" />
            <mxPoint x="370" y="1700" as="sourcePoint" />
            <mxPoint x="722" y="1700" as="targetPoint" />
            <Array as="points" />
          </mxGeometry>
        </mxCell>
        <mxCell id="Vfz-lq0GeKyMY03_MZTZ-26" value="イベント発生" style="html=1;dashed=0;whiteSpace=wrap;rounded=0;strokeColor=default;align=center;verticalAlign=middle;fontFamily=Helvetica;fontSize=12;fontColor=default;fillColor=default;labelBackgroundColor=default;" vertex="1" parent="WIyWlLk6GJQsqaUBKTNV-1">
          <mxGeometry x="490" y="1680" width="120" height="40" as="geometry" />
        </mxCell>
        <mxCell id="Vfz-lq0GeKyMY03_MZTZ-27" value="Yes" style="rounded=0;html=1;jettySize=auto;orthogonalLoop=1;fontSize=11;endArrow=block;endFill=0;endSize=8;strokeWidth=1;shadow=0;labelBackgroundColor=none;edgeStyle=elbowEdgeStyle;spacing=0;strokeColor=default;align=center;verticalAlign=middle;fontFamily=Helvetica;fontColor=default;entryX=0;entryY=0.5;entryDx=0;entryDy=0;" edge="1" parent="WIyWlLk6GJQsqaUBKTNV-1" source="Vfz-lq0GeKyMY03_MZTZ-24" target="Vfz-lq0GeKyMY03_MZTZ-26">
          <mxGeometry y="10" relative="1" as="geometry">
            <mxPoint as="offset" />
            <mxPoint x="460" y="1890" as="sourcePoint" />
            <mxPoint x="510" y="1890" as="targetPoint" />
            <Array as="points" />
          </mxGeometry>
        </mxCell>
        <mxCell id="Vfz-lq0GeKyMY03_MZTZ-28" value="No" style="rounded=0;html=1;jettySize=auto;orthogonalLoop=1;fontSize=11;endArrow=block;endFill=0;endSize=8;strokeWidth=1;shadow=0;labelBackgroundColor=none;edgeStyle=elbowEdgeStyle;spacing=0;strokeColor=default;align=center;verticalAlign=middle;fontFamily=Helvetica;fontColor=default;exitX=0.5;exitY=1;exitDx=0;exitDy=0;entryX=0.5;entryY=0;entryDx=0;entryDy=0;" edge="1" parent="WIyWlLk6GJQsqaUBKTNV-1" source="Vfz-lq0GeKyMY03_MZTZ-24" target="Vfz-lq0GeKyMY03_MZTZ-29">
          <mxGeometry x="-0.0588" y="20" relative="1" as="geometry">
            <mxPoint as="offset" />
            <mxPoint x="600" y="1870" as="sourcePoint" />
            <mxPoint x="600" y="1910" as="targetPoint" />
            <Array as="points" />
          </mxGeometry>
        </mxCell>
        <mxCell id="Vfz-lq0GeKyMY03_MZTZ-29" value="通常会話" style="html=1;dashed=0;whiteSpace=wrap;rounded=0;strokeColor=default;align=center;verticalAlign=middle;fontFamily=Helvetica;fontSize=12;fontColor=default;fillColor=default;labelBackgroundColor=default;" vertex="1" parent="WIyWlLk6GJQsqaUBKTNV-1">
          <mxGeometry x="330" y="1780" width="120" height="40" as="geometry" />
        </mxCell>
        <mxCell id="Vfz-lq0GeKyMY03_MZTZ-33" style="edgeStyle=elbowEdgeStyle;shape=connector;rounded=0;orthogonalLoop=1;jettySize=auto;html=1;entryX=0.5;entryY=0;entryDx=0;entryDy=0;strokeColor=default;align=center;verticalAlign=middle;fontFamily=Helvetica;fontSize=11;fontColor=default;labelBackgroundColor=default;endArrow=block;endFill=0;" edge="1" parent="WIyWlLk6GJQsqaUBKTNV-1" source="Vfz-lq0GeKyMY03_MZTZ-30" target="Vfz-lq0GeKyMY03_MZTZ-32">
          <mxGeometry relative="1" as="geometry" />
        </mxCell>
        <mxCell id="Vfz-lq0GeKyMY03_MZTZ-30" value="入力待ち" style="html=1;dashed=0;whiteSpace=wrap;rounded=0;strokeColor=default;align=center;verticalAlign=middle;fontFamily=Helvetica;fontSize=12;fontColor=default;fillColor=default;labelBackgroundColor=default;" vertex="1" parent="WIyWlLk6GJQsqaUBKTNV-1">
          <mxGeometry x="846.9300000000001" y="1730" width="120" height="40" as="geometry" />
        </mxCell>
        <mxCell id="Vfz-lq0GeKyMY03_MZTZ-32" value="本を&lt;div&gt;クリックしたか&lt;/div&gt;" style="shape=rhombus;html=1;dashed=0;whiteSpace=wrap;perimeter=rhombusPerimeter;rounded=0;strokeColor=default;align=center;verticalAlign=middle;fontFamily=Helvetica;fontSize=12;fontColor=default;fillColor=default;labelBackgroundColor=default;" vertex="1" parent="WIyWlLk6GJQsqaUBKTNV-1">
          <mxGeometry x="856.9300000000001" y="1810" width="100" height="80" as="geometry" />
        </mxCell>
        <mxCell id="Vfz-lq0GeKyMY03_MZTZ-34" value="Yes" style="rounded=0;html=1;jettySize=auto;orthogonalLoop=1;fontSize=11;endArrow=block;endFill=0;endSize=8;strokeWidth=1;shadow=0;labelBackgroundColor=none;edgeStyle=elbowEdgeStyle;spacing=0;strokeColor=default;align=center;verticalAlign=middle;fontFamily=Helvetica;fontColor=default;exitX=1;exitY=0.5;exitDx=0;exitDy=0;entryX=0;entryY=0.5;entryDx=0;entryDy=0;" edge="1" parent="WIyWlLk6GJQsqaUBKTNV-1" source="Vfz-lq0GeKyMY03_MZTZ-32" target="6JcmAuNUgB5EMldQOZjF-0">
          <mxGeometry y="10" relative="1" as="geometry">
            <mxPoint as="offset" />
            <mxPoint x="966.9300000000001" y="1849.5" as="sourcePoint" />
            <mxPoint x="906.9300000000001" y="1930" as="targetPoint" />
            <Array as="points" />
          </mxGeometry>
        </mxCell>
        <mxCell id="6JcmAuNUgB5EMldQOZjF-0" value="グレーリストに&lt;div&gt;入れる&lt;/div&gt;" style="html=1;dashed=0;whiteSpace=wrap;rounded=0;strokeColor=default;align=center;verticalAlign=middle;fontFamily=Helvetica;fontSize=12;fontColor=default;fillColor=default;labelBackgroundColor=default;" vertex="1" parent="WIyWlLk6GJQsqaUBKTNV-1">
          <mxGeometry x="1006.9300000000001" y="1830" width="120" height="40" as="geometry" />
        </mxCell>
        <mxCell id="6JcmAuNUgB5EMldQOZjF-1" value="自分の&lt;div&gt;インベントリ&lt;/div&gt;&lt;div&gt;から取り出す&lt;/div&gt;" style="shape=rhombus;html=1;dashed=0;whiteSpace=wrap;perimeter=rhombusPerimeter;rounded=0;strokeColor=default;align=center;verticalAlign=middle;fontFamily=Helvetica;fontSize=12;fontColor=default;fillColor=default;labelBackgroundColor=default;" vertex="1" parent="WIyWlLk6GJQsqaUBKTNV-1">
          <mxGeometry x="856.9300000000001" y="1929" width="100" height="80" as="geometry" />
        </mxCell>
        <mxCell id="6JcmAuNUgB5EMldQOZjF-2" value="No" style="rounded=0;html=1;jettySize=auto;orthogonalLoop=1;fontSize=11;endArrow=block;endFill=0;endSize=8;strokeWidth=1;shadow=0;labelBackgroundColor=none;edgeStyle=elbowEdgeStyle;spacing=0;strokeColor=default;align=center;verticalAlign=middle;fontFamily=Helvetica;fontColor=default;exitX=0.5;exitY=1;exitDx=0;exitDy=0;" edge="1" parent="WIyWlLk6GJQsqaUBKTNV-1" source="Vfz-lq0GeKyMY03_MZTZ-32" target="6JcmAuNUgB5EMldQOZjF-1">
          <mxGeometry x="-0.0588" y="20" relative="1" as="geometry">
            <mxPoint as="offset" />
            <mxPoint x="746.9300000000001" y="2010" as="sourcePoint" />
            <mxPoint x="746.9300000000001" y="2050" as="targetPoint" />
            <Array as="points" />
          </mxGeometry>
        </mxCell>
        <mxCell id="6JcmAuNUgB5EMldQOZjF-3" value="Yes" style="rounded=0;html=1;jettySize=auto;orthogonalLoop=1;fontSize=11;endArrow=block;endFill=0;endSize=8;strokeWidth=1;shadow=0;labelBackgroundColor=none;edgeStyle=elbowEdgeStyle;spacing=0;strokeColor=default;align=center;verticalAlign=middle;fontFamily=Helvetica;fontColor=default;exitX=1;exitY=0.5;exitDx=0;exitDy=0;entryX=0;entryY=0.5;entryDx=0;entryDy=0;" edge="1" parent="WIyWlLk6GJQsqaUBKTNV-1" source="6JcmAuNUgB5EMldQOZjF-1" target="6JcmAuNUgB5EMldQOZjF-5">
          <mxGeometry y="10" relative="1" as="geometry">
            <mxPoint as="offset" />
            <mxPoint x="1116.93" y="2010" as="sourcePoint" />
            <mxPoint x="1006.9300000000001" y="1969" as="targetPoint" />
            <Array as="points" />
          </mxGeometry>
        </mxCell>
        <mxCell id="6JcmAuNUgB5EMldQOZjF-5" value="&lt;span style=&quot;&quot;&gt;プレイヤーが&lt;/span&gt;&lt;div&gt;&lt;span style=&quot;&quot;&gt;本棚にカーソルを合わせる&lt;/span&gt;&lt;/div&gt;" style="shape=rhombus;html=1;dashed=0;whiteSpace=wrap;perimeter=rhombusPerimeter;rounded=0;strokeColor=default;align=center;verticalAlign=middle;fontFamily=Helvetica;fontSize=12;fontColor=default;fillColor=default;labelBackgroundColor=default;" vertex="1" parent="WIyWlLk6GJQsqaUBKTNV-1">
          <mxGeometry x="1006.9300000000001" y="1929" width="100" height="80" as="geometry" />
        </mxCell>
        <mxCell id="6JcmAuNUgB5EMldQOZjF-16" style="edgeStyle=orthogonalEdgeStyle;rounded=0;orthogonalLoop=1;jettySize=auto;html=1;entryX=0.5;entryY=0;entryDx=0;entryDy=0;" edge="1" parent="WIyWlLk6GJQsqaUBKTNV-1" source="6JcmAuNUgB5EMldQOZjF-9" target="6JcmAuNUgB5EMldQOZjF-15">
          <mxGeometry relative="1" as="geometry" />
        </mxCell>
        <mxCell id="6JcmAuNUgB5EMldQOZjF-9" value="挿入箇所に&lt;div&gt;スペースを作る&lt;/div&gt;" style="html=1;dashed=0;whiteSpace=wrap;rounded=0;strokeColor=default;align=center;verticalAlign=middle;fontFamily=Helvetica;fontSize=12;fontColor=default;fillColor=default;labelBackgroundColor=default;" vertex="1" parent="WIyWlLk6GJQsqaUBKTNV-1">
          <mxGeometry x="996.9300000000001" y="2050" width="120" height="40" as="geometry" />
        </mxCell>
        <mxCell id="6JcmAuNUgB5EMldQOZjF-10" value="Yes" style="rounded=0;html=1;jettySize=auto;orthogonalLoop=1;fontSize=11;endArrow=block;endFill=0;endSize=8;strokeWidth=1;shadow=0;labelBackgroundColor=none;edgeStyle=elbowEdgeStyle;spacing=0;strokeColor=default;align=center;verticalAlign=middle;fontFamily=Helvetica;fontColor=default;exitX=0.5;exitY=1;exitDx=0;exitDy=0;entryX=0.5;entryY=0;entryDx=0;entryDy=0;" edge="1" parent="WIyWlLk6GJQsqaUBKTNV-1" source="6JcmAuNUgB5EMldQOZjF-5" target="6JcmAuNUgB5EMldQOZjF-9">
          <mxGeometry x="-0.0588" y="20" relative="1" as="geometry">
            <mxPoint as="offset" />
            <mxPoint x="1056.43" y="2010" as="sourcePoint" />
            <mxPoint x="1056.43" y="2049" as="targetPoint" />
            <Array as="points" />
          </mxGeometry>
        </mxCell>
        <mxCell id="6JcmAuNUgB5EMldQOZjF-11" value="No" style="rounded=0;html=1;jettySize=auto;orthogonalLoop=1;fontSize=11;endArrow=block;endFill=0;endSize=8;strokeWidth=1;shadow=0;labelBackgroundColor=none;edgeStyle=elbowEdgeStyle;spacing=0;strokeColor=default;align=center;verticalAlign=middle;fontFamily=Helvetica;fontColor=default;exitX=1;exitY=0.5;exitDx=0;exitDy=0;entryX=0;entryY=0.5;entryDx=0;entryDy=0;" edge="1" parent="WIyWlLk6GJQsqaUBKTNV-1" source="6JcmAuNUgB5EMldQOZjF-5" target="6JcmAuNUgB5EMldQOZjF-12">
          <mxGeometry y="9" relative="1" as="geometry">
            <mxPoint as="offset" />
            <mxPoint x="1106.93" y="1968.5" as="sourcePoint" />
            <mxPoint x="1156.93" y="1968.5" as="targetPoint" />
            <Array as="points" />
          </mxGeometry>
        </mxCell>
        <mxCell id="6JcmAuNUgB5EMldQOZjF-13" style="edgeStyle=orthogonalEdgeStyle;rounded=0;orthogonalLoop=1;jettySize=auto;html=1;entryX=0.5;entryY=0;entryDx=0;entryDy=0;exitX=0.5;exitY=0;exitDx=0;exitDy=0;" edge="1" parent="WIyWlLk6GJQsqaUBKTNV-1" source="6JcmAuNUgB5EMldQOZjF-12" target="6JcmAuNUgB5EMldQOZjF-5">
          <mxGeometry relative="1" as="geometry">
            <Array as="points">
              <mxPoint x="1216.93" y="1909" />
              <mxPoint x="1056.93" y="1909" />
            </Array>
          </mxGeometry>
        </mxCell>
        <mxCell id="6JcmAuNUgB5EMldQOZjF-12" value="待機" style="html=1;dashed=0;whiteSpace=wrap;rounded=0;strokeColor=default;align=center;verticalAlign=middle;fontFamily=Helvetica;fontSize=12;fontColor=default;fillColor=default;labelBackgroundColor=default;" vertex="1" parent="WIyWlLk6GJQsqaUBKTNV-1">
          <mxGeometry x="1156.93" y="1949" width="120" height="40" as="geometry" />
        </mxCell>
        <mxCell id="6JcmAuNUgB5EMldQOZjF-14" value="No" style="rounded=0;html=1;jettySize=auto;orthogonalLoop=1;fontSize=11;endArrow=block;endFill=0;endSize=8;strokeWidth=1;shadow=0;labelBackgroundColor=none;edgeStyle=orthogonalEdgeStyle;spacing=0;strokeColor=default;align=center;verticalAlign=middle;fontFamily=Helvetica;fontColor=default;exitX=0.5;exitY=1;exitDx=0;exitDy=0;entryX=0;entryY=0.5;entryDx=0;entryDy=0;" edge="1" parent="WIyWlLk6GJQsqaUBKTNV-1" source="6JcmAuNUgB5EMldQOZjF-1" target="Vfz-lq0GeKyMY03_MZTZ-30">
          <mxGeometry x="0.1557" y="20" relative="1" as="geometry">
            <mxPoint as="offset" />
            <mxPoint x="1006.9300000000001" y="2020" as="sourcePoint" />
            <mxPoint x="726.9300000000001" y="2130" as="targetPoint" />
          </mxGeometry>
        </mxCell>
        <mxCell id="6JcmAuNUgB5EMldQOZjF-15" value="クリックする" style="shape=rhombus;html=1;dashed=0;whiteSpace=wrap;perimeter=rhombusPerimeter;rounded=0;strokeColor=default;align=center;verticalAlign=middle;fontFamily=Helvetica;fontSize=12;fontColor=default;fillColor=default;" vertex="1" parent="WIyWlLk6GJQsqaUBKTNV-1">
          <mxGeometry x="1006.9300000000001" y="2130" width="100" height="80" as="geometry" />
        </mxCell>
        <mxCell id="dMA6l-um9LlwjnxPnwSW-6" style="edgeStyle=orthogonalEdgeStyle;shape=connector;rounded=0;orthogonalLoop=1;jettySize=auto;html=1;strokeColor=default;align=center;verticalAlign=middle;fontFamily=Helvetica;fontSize=11;fontColor=default;labelBackgroundColor=default;endArrow=block;endFill=0;" edge="1" parent="WIyWlLk6GJQsqaUBKTNV-1" source="dMA6l-um9LlwjnxPnwSW-0" target="dMA6l-um9LlwjnxPnwSW-1">
          <mxGeometry relative="1" as="geometry" />
        </mxCell>
        <mxCell id="dMA6l-um9LlwjnxPnwSW-0" value="蔵書リストを作る" style="html=1;dashed=0;whiteSpace=wrap;rounded=0;strokeColor=default;align=center;verticalAlign=middle;fontFamily=Helvetica;fontSize=12;fontColor=default;fillColor=default;labelBackgroundColor=default;" vertex="1" parent="WIyWlLk6GJQsqaUBKTNV-1">
          <mxGeometry x="180" y="600" width="120" height="40" as="geometry" />
        </mxCell>
        <mxCell id="dMA6l-um9LlwjnxPnwSW-12" style="edgeStyle=orthogonalEdgeStyle;shape=connector;rounded=0;orthogonalLoop=1;jettySize=auto;html=1;strokeColor=default;align=center;verticalAlign=middle;fontFamily=Helvetica;fontSize=11;fontColor=default;labelBackgroundColor=default;endArrow=block;endFill=0;" edge="1" parent="WIyWlLk6GJQsqaUBKTNV-1" source="dMA6l-um9LlwjnxPnwSW-1" target="dMA6l-um9LlwjnxPnwSW-11">
          <mxGeometry relative="1" as="geometry" />
        </mxCell>
        <mxCell id="dMA6l-um9LlwjnxPnwSW-1" value="MAPデータから&lt;div&gt;NDCごとの格納数を取得&lt;/div&gt;" style="html=1;dashed=0;whiteSpace=wrap;rounded=0;strokeColor=default;align=center;verticalAlign=middle;fontFamily=Helvetica;fontSize=12;fontColor=default;fillColor=default;labelBackgroundColor=default;" vertex="1" parent="WIyWlLk6GJQsqaUBKTNV-1">
          <mxGeometry x="167.5" y="680" width="145" height="40" as="geometry" />
        </mxCell>
        <mxCell id="dMA6l-um9LlwjnxPnwSW-15" style="edgeStyle=orthogonalEdgeStyle;shape=connector;rounded=0;orthogonalLoop=1;jettySize=auto;html=1;strokeColor=default;align=center;verticalAlign=middle;fontFamily=Helvetica;fontSize=11;fontColor=default;labelBackgroundColor=default;endArrow=block;endFill=0;" edge="1" parent="WIyWlLk6GJQsqaUBKTNV-1" source="dMA6l-um9LlwjnxPnwSW-2" target="dMA6l-um9LlwjnxPnwSW-14">
          <mxGeometry relative="1" as="geometry" />
        </mxCell>
        <mxCell id="dMA6l-um9LlwjnxPnwSW-2" value="&lt;span style=&quot;background-color: light-dark(#ffffff, var(--ge-dark-color, #121212)); color: light-dark(rgb(0, 0, 0), rgb(255, 255, 255));&quot;&gt;対応するNDCカテゴリの本棚に&lt;/span&gt;&lt;div&gt;&lt;span style=&quot;background-color: light-dark(#ffffff, var(--ge-dark-color, #121212)); color: light-dark(rgb(0, 0, 0), rgb(255, 255, 255));&quot;&gt;本のデータを&lt;/span&gt;&lt;span style=&quot;background-color: light-dark(#ffffff, var(--ge-dark-color, #121212)); color: light-dark(rgb(0, 0, 0), rgb(255, 255, 255));&quot;&gt;入れる&lt;/span&gt;&lt;/div&gt;" style="html=1;dashed=0;whiteSpace=wrap;rounded=0;strokeColor=default;align=center;verticalAlign=middle;fontFamily=Helvetica;fontSize=12;fontColor=default;fillColor=default;labelBackgroundColor=default;" vertex="1" parent="WIyWlLk6GJQsqaUBKTNV-1">
          <mxGeometry x="145" y="840" width="190" height="40" as="geometry" />
        </mxCell>
        <mxCell id="dMA6l-um9LlwjnxPnwSW-4" value="格納数が&lt;div&gt;NDC毎の&lt;/div&gt;&lt;div&gt;格納数未満&lt;/div&gt;" style="shape=rhombus;html=1;dashed=0;whiteSpace=wrap;perimeter=rhombusPerimeter;rounded=0;strokeColor=default;align=center;verticalAlign=middle;fontFamily=Helvetica;fontSize=12;fontColor=default;fillColor=default;labelBackgroundColor=default;" vertex="1" parent="WIyWlLk6GJQsqaUBKTNV-1">
          <mxGeometry x="190" y="1040" width="100" height="80" as="geometry" />
        </mxCell>
        <mxCell id="dMA6l-um9LlwjnxPnwSW-13" style="edgeStyle=orthogonalEdgeStyle;shape=connector;rounded=0;orthogonalLoop=1;jettySize=auto;html=1;strokeColor=default;align=center;verticalAlign=middle;fontFamily=Helvetica;fontSize=11;fontColor=default;labelBackgroundColor=default;endArrow=block;endFill=0;" edge="1" parent="WIyWlLk6GJQsqaUBKTNV-1" source="dMA6l-um9LlwjnxPnwSW-11" target="dMA6l-um9LlwjnxPnwSW-2">
          <mxGeometry relative="1" as="geometry" />
        </mxCell>
        <mxCell id="dMA6l-um9LlwjnxPnwSW-11" value="MAPデータから&lt;div&gt;本棚ごとの格納数を取得&lt;/div&gt;" style="html=1;dashed=0;whiteSpace=wrap;rounded=0;strokeColor=default;align=center;verticalAlign=middle;fontFamily=Helvetica;fontSize=12;fontColor=default;fillColor=default;labelBackgroundColor=default;" vertex="1" parent="WIyWlLk6GJQsqaUBKTNV-1">
          <mxGeometry x="167.5" y="760" width="145" height="40" as="geometry" />
        </mxCell>
        <mxCell id="dMA6l-um9LlwjnxPnwSW-14" value="格納数が&lt;div&gt;本棚の&lt;/div&gt;&lt;div&gt;格納数未満&lt;/div&gt;" style="shape=rhombus;html=1;dashed=0;whiteSpace=wrap;perimeter=rhombusPerimeter;rounded=0;strokeColor=default;align=center;verticalAlign=middle;fontFamily=Helvetica;fontSize=12;fontColor=default;fillColor=default;labelBackgroundColor=default;" vertex="1" parent="WIyWlLk6GJQsqaUBKTNV-1">
          <mxGeometry x="190" y="920" width="100" height="80" as="geometry" />
        </mxCell>
        <mxCell id="dMA6l-um9LlwjnxPnwSW-16" value="Yes" style="rounded=0;html=1;jettySize=auto;orthogonalLoop=1;fontSize=11;endArrow=block;endFill=0;endSize=8;strokeWidth=1;shadow=0;labelBackgroundColor=none;edgeStyle=elbowEdgeStyle;spacing=0;strokeColor=default;align=center;verticalAlign=middle;fontFamily=Helvetica;fontColor=default;exitX=1;exitY=0.5;exitDx=0;exitDy=0;" edge="1" parent="WIyWlLk6GJQsqaUBKTNV-1" source="dMA6l-um9LlwjnxPnwSW-14" target="dMA6l-um9LlwjnxPnwSW-2">
          <mxGeometry x="0.2308" y="-20" relative="1" as="geometry">
            <mxPoint as="offset" />
            <mxPoint x="520" y="710" as="sourcePoint" />
            <mxPoint x="520" y="750" as="targetPoint" />
            <Array as="points">
              <mxPoint x="360" y="910" />
            </Array>
          </mxGeometry>
        </mxCell>
        <mxCell id="dMA6l-um9LlwjnxPnwSW-17" value="No" style="rounded=0;html=1;jettySize=auto;orthogonalLoop=1;fontSize=11;endArrow=block;endFill=0;endSize=8;strokeWidth=1;shadow=0;labelBackgroundColor=none;edgeStyle=elbowEdgeStyle;spacing=0;strokeColor=default;align=center;verticalAlign=middle;fontFamily=Helvetica;fontColor=default;" edge="1" parent="WIyWlLk6GJQsqaUBKTNV-1" target="dMA6l-um9LlwjnxPnwSW-4">
          <mxGeometry x="-0.0588" y="20" relative="1" as="geometry">
            <mxPoint as="offset" />
            <mxPoint x="240" y="1000" as="sourcePoint" />
            <mxPoint x="240" y="1040" as="targetPoint" />
            <Array as="points">
              <mxPoint x="240" y="1020" />
            </Array>
          </mxGeometry>
        </mxCell>
        <mxCell id="dMA6l-um9LlwjnxPnwSW-18" value="Yes" style="rounded=0;html=1;jettySize=auto;orthogonalLoop=1;fontSize=11;endArrow=block;endFill=0;endSize=8;strokeWidth=1;shadow=0;labelBackgroundColor=none;edgeStyle=elbowEdgeStyle;spacing=0;strokeColor=default;align=center;verticalAlign=middle;fontFamily=Helvetica;fontColor=default;" edge="1" parent="WIyWlLk6GJQsqaUBKTNV-1" source="dMA6l-um9LlwjnxPnwSW-4" target="dMA6l-um9LlwjnxPnwSW-20">
          <mxGeometry x="-0.25" y="10" relative="1" as="geometry">
            <mxPoint as="offset" />
            <mxPoint x="340" y="1080" as="sourcePoint" />
            <mxPoint x="330" y="1080" as="targetPoint" />
            <Array as="points" />
          </mxGeometry>
        </mxCell>
        <mxCell id="dMA6l-um9LlwjnxPnwSW-22" style="edgeStyle=elbowEdgeStyle;shape=connector;rounded=0;orthogonalLoop=1;jettySize=auto;html=1;strokeColor=default;align=center;verticalAlign=middle;fontFamily=Helvetica;fontSize=11;fontColor=default;labelBackgroundColor=none;endArrow=block;endFill=0;shadow=0;strokeWidth=1;spacing=0;endSize=8;" edge="1" parent="WIyWlLk6GJQsqaUBKTNV-1" source="dMA6l-um9LlwjnxPnwSW-20" target="dMA6l-um9LlwjnxPnwSW-2">
          <mxGeometry relative="1" as="geometry">
            <mxPoint x="480" y="840" as="targetPoint" />
            <Array as="points">
              <mxPoint x="500" y="1080" />
              <mxPoint x="500" y="860" />
            </Array>
          </mxGeometry>
        </mxCell>
        <mxCell id="dMA6l-um9LlwjnxPnwSW-20" value="収納対象を&lt;div&gt;次の本棚にする&lt;/div&gt;" style="html=1;dashed=0;whiteSpace=wrap;rounded=0;strokeColor=default;align=center;verticalAlign=middle;fontFamily=Helvetica;fontSize=12;fontColor=default;fillColor=default;labelBackgroundColor=default;" vertex="1" parent="WIyWlLk6GJQsqaUBKTNV-1">
          <mxGeometry x="330" y="1060" width="120" height="40" as="geometry" />
        </mxCell>
        <mxCell id="dMA6l-um9LlwjnxPnwSW-23" value="No" style="rounded=0;html=1;jettySize=auto;orthogonalLoop=1;fontSize=11;endArrow=block;endFill=0;endSize=8;strokeWidth=1;shadow=0;labelBackgroundColor=none;edgeStyle=elbowEdgeStyle;spacing=0;strokeColor=default;align=center;verticalAlign=middle;fontFamily=Helvetica;fontColor=default;exitX=0.5;exitY=1;exitDx=0;exitDy=0;" edge="1" parent="WIyWlLk6GJQsqaUBKTNV-1" source="dMA6l-um9LlwjnxPnwSW-4" target="dMA6l-um9LlwjnxPnwSW-24">
          <mxGeometry x="-0.0588" y="20" relative="1" as="geometry">
            <mxPoint as="offset" />
            <mxPoint x="250" y="1180" as="sourcePoint" />
            <mxPoint x="240" y="1160" as="targetPoint" />
            <Array as="points">
              <mxPoint x="240" y="1160" />
            </Array>
          </mxGeometry>
        </mxCell>
        <mxCell id="dMA6l-um9LlwjnxPnwSW-24" value="格納数が&lt;div&gt;&lt;span style=&quot;background-color: light-dark(#ffffff, var(--ge-dark-color, #121212)); color: light-dark(rgb(0, 0, 0), rgb(255, 255, 255));&quot;&gt;図書館全体の&lt;/span&gt;&lt;div&gt;格納数未満&lt;/div&gt;&lt;/div&gt;" style="shape=rhombus;html=1;dashed=0;whiteSpace=wrap;perimeter=rhombusPerimeter;rounded=0;strokeColor=default;align=center;verticalAlign=middle;fontFamily=Helvetica;fontSize=12;fontColor=default;fillColor=default;labelBackgroundColor=default;" vertex="1" parent="WIyWlLk6GJQsqaUBKTNV-1">
          <mxGeometry x="190" y="1160" width="100" height="80" as="geometry" />
        </mxCell>
        <mxCell id="dMA6l-um9LlwjnxPnwSW-25" value="Yes" style="rounded=0;html=1;jettySize=auto;orthogonalLoop=1;fontSize=11;endArrow=block;endFill=0;endSize=8;strokeWidth=1;shadow=0;labelBackgroundColor=none;edgeStyle=elbowEdgeStyle;spacing=0;strokeColor=default;align=center;verticalAlign=middle;fontFamily=Helvetica;fontColor=default;" edge="1" parent="WIyWlLk6GJQsqaUBKTNV-1" source="dMA6l-um9LlwjnxPnwSW-24" target="dMA6l-um9LlwjnxPnwSW-26">
          <mxGeometry x="-0.25" y="10" relative="1" as="geometry">
            <mxPoint as="offset" />
            <mxPoint x="290" y="1199.5" as="sourcePoint" />
            <mxPoint x="330" y="1199.5" as="targetPoint" />
            <Array as="points" />
          </mxGeometry>
        </mxCell>
        <mxCell id="dMA6l-um9LlwjnxPnwSW-29" style="edgeStyle=elbowEdgeStyle;shape=connector;rounded=0;orthogonalLoop=1;jettySize=auto;html=1;shadow=0;strokeColor=default;strokeWidth=1;align=center;verticalAlign=middle;spacing=0;fontFamily=Helvetica;fontSize=11;fontColor=default;labelBackgroundColor=none;endArrow=block;endFill=0;endSize=8;" edge="1" parent="WIyWlLk6GJQsqaUBKTNV-1" source="dMA6l-um9LlwjnxPnwSW-26" target="dMA6l-um9LlwjnxPnwSW-28">
          <mxGeometry relative="1" as="geometry" />
        </mxCell>
        <mxCell id="dMA6l-um9LlwjnxPnwSW-26" value="収納対象を&lt;div&gt;次のNDCの本棚にする&lt;/div&gt;" style="html=1;dashed=0;whiteSpace=wrap;rounded=0;strokeColor=default;align=center;verticalAlign=middle;fontFamily=Helvetica;fontSize=12;fontColor=default;fillColor=default;labelBackgroundColor=default;" vertex="1" parent="WIyWlLk6GJQsqaUBKTNV-1">
          <mxGeometry x="330" y="1180" width="140" height="40" as="geometry" />
        </mxCell>
        <mxCell id="dMA6l-um9LlwjnxPnwSW-33" style="edgeStyle=elbowEdgeStyle;shape=connector;rounded=0;orthogonalLoop=1;jettySize=auto;html=1;shadow=0;strokeColor=default;strokeWidth=1;align=center;verticalAlign=middle;spacing=0;fontFamily=Helvetica;fontSize=11;fontColor=default;labelBackgroundColor=none;endArrow=block;endFill=0;endSize=8;" edge="1" parent="WIyWlLk6GJQsqaUBKTNV-1" source="dMA6l-um9LlwjnxPnwSW-28" target="dMA6l-um9LlwjnxPnwSW-2">
          <mxGeometry relative="1" as="geometry">
            <Array as="points">
              <mxPoint x="585" y="860" />
            </Array>
          </mxGeometry>
        </mxCell>
        <mxCell id="dMA6l-um9LlwjnxPnwSW-28" value="納めきれなかった本を&lt;div&gt;バックヤードに収納する&lt;/div&gt;" style="html=1;dashed=0;whiteSpace=wrap;rounded=0;strokeColor=default;align=center;verticalAlign=middle;fontFamily=Helvetica;fontSize=12;fontColor=default;fillColor=default;labelBackgroundColor=default;" vertex="1" parent="WIyWlLk6GJQsqaUBKTNV-1">
          <mxGeometry x="510" y="1180" width="150" height="40" as="geometry" />
        </mxCell>
        <mxCell id="dMA6l-um9LlwjnxPnwSW-31" value="No" style="rounded=0;html=1;jettySize=auto;orthogonalLoop=1;fontSize=11;endArrow=block;endFill=0;endSize=8;strokeWidth=1;shadow=0;labelBackgroundColor=none;edgeStyle=elbowEdgeStyle;spacing=0;strokeColor=default;align=center;verticalAlign=middle;fontFamily=Helvetica;fontColor=default;" edge="1" parent="WIyWlLk6GJQsqaUBKTNV-1" source="dMA6l-um9LlwjnxPnwSW-24" target="dMA6l-um9LlwjnxPnwSW-32">
          <mxGeometry x="-0.0588" y="20" relative="1" as="geometry">
            <mxPoint as="offset" />
            <mxPoint x="239.5" y="1240" as="sourcePoint" />
            <mxPoint x="240" y="1280" as="targetPoint" />
            <Array as="points">
              <mxPoint x="239.5" y="1298" />
            </Array>
          </mxGeometry>
        </mxCell>
        <mxCell id="dMA6l-um9LlwjnxPnwSW-34" style="edgeStyle=elbowEdgeStyle;shape=connector;rounded=0;orthogonalLoop=1;jettySize=auto;html=1;shadow=0;strokeColor=default;strokeWidth=1;align=center;verticalAlign=middle;spacing=0;fontFamily=Helvetica;fontSize=11;fontColor=default;labelBackgroundColor=none;endArrow=block;endFill=0;endSize=8;" edge="1" parent="WIyWlLk6GJQsqaUBKTNV-1" source="dMA6l-um9LlwjnxPnwSW-32" target="UCGPzdaPRjbpdUpxFMsG-56">
          <mxGeometry relative="1" as="geometry" />
        </mxCell>
        <mxCell id="dMA6l-um9LlwjnxPnwSW-32" value="納めきれなかった本を&lt;div&gt;バックヤードに収納する&lt;/div&gt;" style="html=1;dashed=0;whiteSpace=wrap;rounded=0;strokeColor=default;align=center;verticalAlign=middle;fontFamily=Helvetica;fontSize=12;fontColor=default;fillColor=default;labelBackgroundColor=default;" vertex="1" parent="WIyWlLk6GJQsqaUBKTNV-1">
          <mxGeometry x="167.5" y="1280" width="145" height="40" as="geometry" />
        </mxCell>
      </root>
    </mxGraphModel>
  </diagram>
</mxfile>
